<svg width="100" height="52" viewBox="0 0 100 52" fill="none" xmlns="http://www.w3.org/2000/svg">
<circle cx="26" cy="26" r="26" fill="white"/>
<path d="M36.6066 27.2699C34.9729 25.9558 33.0283 24.983 30.9066 24.3941C33.179 23.1352 34.6719 21.0283 34.6719 18.646C34.6719 14.7998 30.7817 11.6707 26 11.6707C21.2183 11.6707 17.3281 14.7998 17.3281 18.646C17.3281 21.0283 18.821 23.1352 21.0935 24.3941C18.9718 24.983 17.0272 25.9558 15.3934 27.2699C12.5603 29.5488 11 32.5787 11 35.8015H13.3438C13.3438 30.1881 19.0213 25.6213 26 25.6213C32.9787 25.6213 38.6562 30.1881 38.6562 35.8015H41C41 32.5787 39.4397 29.5488 36.6066 27.2699ZM26 23.7361C22.5107 23.7361 19.6719 21.4527 19.6719 18.646C19.6719 15.8393 22.5107 13.5559 26 13.5559C29.4893 13.5559 32.3281 15.8393 32.3281 18.646C32.3281 21.4527 29.4893 23.7361 26 23.7361Z" fill="#2E266F"/>
<circle cx="43.5" cy="7.5" r="7.5" fill="#31A24C"/>
<path d="M60.5839 31V19.64H61.9279V29.768H66.9839V31H60.5839ZM72.2293 31.24C71.6426 31.24 71.0986 31.1333 70.5973 30.92C70.1066 30.696 69.6746 30.392 69.3013 30.008C68.9386 29.6133 68.656 29.1493 68.4533 28.616C68.2506 28.0827 68.1493 27.5013 68.1493 26.872C68.1493 26.2427 68.2506 25.6613 68.4533 25.128C68.6666 24.5947 68.9546 24.136 69.3173 23.752C69.6906 23.3573 70.128 23.0533 70.6293 22.84C71.1306 22.616 71.6746 22.504 72.2613 22.504C72.848 22.504 73.3866 22.616 73.8773 22.84C74.3786 23.0533 74.8106 23.3573 75.1733 23.752C75.5466 24.136 75.8346 24.5947 76.0373 25.128C76.24 25.6613 76.3413 26.2427 76.3413 26.872C76.3413 27.5013 76.2346 28.0827 76.0213 28.616C75.8186 29.1493 75.5306 29.6133 75.1573 30.008C74.7946 30.392 74.3626 30.696 73.8613 30.92C73.36 31.1333 72.816 31.24 72.2293 31.24ZM72.2453 30.072C72.6506 30.072 73.0186 29.992 73.3493 29.832C73.6906 29.672 73.984 29.4533 74.2293 29.176C74.4853 28.888 74.6826 28.552 74.8213 28.168C74.96 27.7733 75.0293 27.3413 75.0293 26.872C75.0293 26.4027 74.96 25.976 74.8213 25.592C74.6826 25.1973 74.4853 24.8613 74.2293 24.584C73.984 24.296 73.6906 24.072 73.3493 23.912C73.0186 23.752 72.6506 23.672 72.2453 23.672C71.84 23.672 71.4666 23.752 71.1253 23.912C70.7946 24.072 70.5013 24.296 70.2453 24.584C70 24.8613 69.808 25.1973 69.6693 25.592C69.5306 25.976 69.4613 26.4027 69.4613 26.872C69.4613 27.3413 69.5306 27.7733 69.6693 28.168C69.808 28.552 70 28.888 70.2453 29.176C70.5013 29.4533 70.7946 29.672 71.1253 29.832C71.4666 29.992 71.84 30.072 72.2453 30.072ZM81.6452 30.92C81.1012 30.92 80.5945 30.8133 80.1252 30.6C79.6665 30.3867 79.2612 30.0933 78.9092 29.72C78.5679 29.336 78.3012 28.888 78.1092 28.376C77.9172 27.864 77.8212 27.3147 77.8212 26.728C77.8212 26.1307 77.9172 25.576 78.1092 25.064C78.3119 24.552 78.5892 24.104 78.9412 23.72C79.2932 23.336 79.7039 23.0373 80.1732 22.824C80.6532 22.6107 81.1652 22.504 81.7092 22.504C82.3385 22.504 82.9092 22.6533 83.4212 22.952C83.9439 23.2507 84.3492 23.6613 84.6372 24.184L84.7012 22.744H85.8532V30.296C85.8532 30.9253 85.7572 31.496 85.5652 32.008C85.3732 32.5307 85.1012 32.9787 84.7492 33.352C84.3972 33.7253 83.9759 34.008 83.4852 34.2C82.9945 34.4027 82.4505 34.504 81.8532 34.504C81.3305 34.504 80.8399 34.424 80.3812 34.264C79.9225 34.1147 79.5119 33.8907 79.1492 33.592C78.7972 33.304 78.5039 32.9573 78.2692 32.552L79.3412 32.008C79.6505 32.456 80.0132 32.7973 80.4292 33.032C80.8559 33.2773 81.3305 33.4 81.8532 33.4C82.4079 33.4 82.8879 33.272 83.2932 33.016C83.7092 32.7707 84.0239 32.4187 84.2372 31.96C84.4612 31.5013 84.5732 30.9627 84.5732 30.344V29.288C84.2745 29.8 83.8692 30.2 83.3572 30.488C82.8452 30.776 82.2745 30.92 81.6452 30.92ZM81.8692 29.752C82.2639 29.752 82.6265 29.6773 82.9572 29.528C83.2985 29.3787 83.5919 29.1707 83.8372 28.904C84.0825 28.6267 84.2692 28.3013 84.3972 27.928C84.5359 27.5547 84.6052 27.1493 84.6052 26.712C84.6052 26.2747 84.5359 25.8693 84.3972 25.496C84.2692 25.1227 84.0825 24.8027 83.8372 24.536C83.5919 24.2587 83.2985 24.0453 82.9572 23.896C82.6265 23.7467 82.2639 23.672 81.8692 23.672C81.4745 23.672 81.1065 23.7467 80.7652 23.896C80.4345 24.0453 80.1465 24.2587 79.9012 24.536C79.6559 24.8027 79.4639 25.1227 79.3252 25.496C79.1972 25.8693 79.1332 26.2747 79.1332 26.712C79.1332 27.1493 79.1972 27.5547 79.3252 27.928C79.4639 28.3013 79.6559 28.6267 79.9012 28.904C80.1465 29.1707 80.4345 29.3787 80.7652 29.528C81.1065 29.6773 81.4745 29.752 81.8692 29.752ZM89.6166 20.328C89.6166 20.488 89.5739 20.6373 89.4886 20.776C89.4139 20.904 89.3072 21.0107 89.1686 21.096C89.0406 21.1707 88.8966 21.208 88.7366 21.208C88.5766 21.208 88.4272 21.1707 88.2886 21.096C88.1606 21.0107 88.0539 20.904 87.9686 20.776C87.8939 20.6373 87.8566 20.488 87.8566 20.328C87.8566 20.168 87.8939 20.024 87.9686 19.896C88.0539 19.7573 88.1606 19.6507 88.2886 19.576C88.4272 19.4907 88.5766 19.448 88.7366 19.448C88.8966 19.448 89.0406 19.4907 89.1686 19.576C89.3072 19.6507 89.4139 19.7573 89.4886 19.896C89.5739 20.024 89.6166 20.168 89.6166 20.328ZM88.0966 31V22.744H89.3766V31H88.0966ZM91.6122 31V22.744H92.7642L92.8282 24.056C93.0735 23.5867 93.4255 23.2133 93.8842 22.936C94.3535 22.648 94.8922 22.504 95.5002 22.504C96.1295 22.504 96.6789 22.6533 97.1482 22.952C97.6175 23.2507 97.9749 23.6773 98.2202 24.232C98.4762 24.776 98.6042 25.4213 98.6042 26.168V31H97.3242V26.248C97.3242 25.4267 97.1429 24.792 96.7802 24.344C96.4282 23.896 95.9215 23.672 95.2602 23.672C94.8015 23.672 94.3909 23.7787 94.0282 23.992C93.6762 24.1947 93.3989 24.4827 93.1962 24.856C92.9935 25.2187 92.8922 25.6347 92.8922 26.104V31H91.6122Z" fill="white"/>
</svg>
