<svg width="30" height="25" viewBox="0 0 30 25" fill="none" xmlns="http://www.w3.org/2000/svg">
<path d="M25.6066 16.2699C23.9729 14.9558 22.0283 13.983 19.9066 13.3941C22.179 12.1352 23.6719 10.0283 23.6719 7.64597C23.6719 3.79979 19.7817 0.670654 15 0.670654C10.2183 0.670654 6.32812 3.79979 6.32812 7.64597C6.32812 10.0283 7.82103 12.1352 10.0935 13.3941C7.9718 13.983 6.02719 14.9558 4.39342 16.2699C1.56029 18.5488 0 21.5787 0 24.8015H2.34375C2.34375 19.1881 8.02131 14.6213 15 14.6213C21.9787 14.6213 27.6562 19.1881 27.6562 24.8015H30C30 21.5787 28.4397 18.5488 25.6066 16.2699ZM15 12.7361C11.5107 12.7361 8.67188 10.4527 8.67188 7.64597C8.67188 4.83926 11.5107 2.55588 15 2.55588C18.4893 2.55588 21.3281 4.83926 21.3281 7.64597C21.3281 10.4527 18.4893 12.7361 15 12.7361Z" fill="#2E266F"/>
</svg>
